<svg width="28" height="23" viewBox="0 0 28 23" fill="none" xmlns="http://www.w3.org/2000/svg">
    <path id="Union" fill-rule="evenodd" clip-rule="evenodd"
        d="M11.7143 4C7.41151 4 4 7.39969 4 11.5C4 14.349 5.647 16.8597 8.09559 18.1268C8.49397 16.3376 10.0908 15 12 15H13C13 12.2386 15.2386 10 18 10C20.7614 10 23 12.2386 23 15H24C26.2091 15 28 16.7909 28 19C28 21.2091 26.2091 23 24 23H12C11.9439 23 11.8881 22.9988 11.8326 22.9966C11.7934 22.9988 11.754 23 11.7143 23C5.28695 23 0 17.8931 0 11.5C0 5.1069 5.28695 0 11.7143 0C14.5908 0 17.2345 1.02054 19.278 2.71816C20.1276 3.42399 20.2442 4.68494 19.5384 5.53458C18.8326 6.38421 17.5716 6.5008 16.722 5.79497C15.3771 4.67769 13.632 4 11.7143 4Z"
        fill="url(#paint0_linear_1124_194)" />
    <defs>
        <linearGradient id="paint0_linear_1124_194" x1="18" y1="4.5" x2="9" y2="23" gradientUnits="userSpaceOnUse">
            <stop stop-color="#4AC9FF" />
            <stop offset="1" stop-color="#0C6DFF" />
        </linearGradient>
    </defs>
</svg>